<mxfile host="Electron" modified="2023-09-13T21:55:44.426Z" agent="Mozilla/5.0 (Windows NT 10.0; Win64; x64) AppleWebKit/537.36 (KHTML, like Gecko) draw.io/21.6.5 Chrome/114.0.5735.243 Electron/25.3.1 Safari/537.36" etag="sXIi64o2dsG68XFgcW50" version="21.6.5" type="device" pages="2">
  <diagram id="5zqP1cPBUYEB5b7HEuYu" name="System Block Diagram">
    <mxGraphModel dx="2211" dy="1289" grid="1" gridSize="10" guides="1" tooltips="1" connect="1" arrows="1" fold="1" page="1" pageScale="1" pageWidth="1100" pageHeight="850" math="0" shadow="0">
      <root>
        <mxCell id="0" />
        <mxCell id="1" parent="0" />
        <mxCell id="tOTZb1gv-i5D8va3ve_L-6" style="edgeStyle=orthogonalEdgeStyle;rounded=0;orthogonalLoop=1;jettySize=auto;html=1;exitX=0.5;exitY=0;exitDx=0;exitDy=0;entryX=0.5;entryY=1;entryDx=0;entryDy=0;endArrow=none;endFill=0;strokeWidth=3;fontFamily=CMU Typewriter Text;" parent="1" source="tOTZb1gv-i5D8va3ve_L-1" target="tOTZb1gv-i5D8va3ve_L-4" edge="1">
          <mxGeometry relative="1" as="geometry" />
        </mxCell>
        <mxCell id="tOTZb1gv-i5D8va3ve_L-21" style="edgeStyle=orthogonalEdgeStyle;rounded=0;orthogonalLoop=1;jettySize=auto;html=1;exitX=1;exitY=0.5;exitDx=0;exitDy=0;entryX=0;entryY=0.5;entryDx=0;entryDy=0;endArrow=none;endFill=0;strokeWidth=3;fillColor=#0050ef;strokeColor=#FF3333;fontFamily=CMU Typewriter Text;" parent="1" source="tOTZb1gv-i5D8va3ve_L-1" target="tOTZb1gv-i5D8va3ve_L-14" edge="1">
          <mxGeometry relative="1" as="geometry" />
        </mxCell>
        <mxCell id="tOTZb1gv-i5D8va3ve_L-49" value="12V" style="edgeLabel;html=1;align=center;verticalAlign=middle;resizable=0;points=[];fontFamily=CMU Typewriter Text;" parent="tOTZb1gv-i5D8va3ve_L-21" vertex="1" connectable="0">
          <mxGeometry x="0.1931" relative="1" as="geometry">
            <mxPoint y="-10" as="offset" />
          </mxGeometry>
        </mxCell>
        <mxCell id="tOTZb1gv-i5D8va3ve_L-1" value="NEMA 17 Stepper Motor" style="rounded=0;whiteSpace=wrap;html=1;strokeWidth=2;fillColor=#fff2cc;strokeColor=#d6b656;fontFamily=CMU Typewriter Text;" parent="1" vertex="1">
          <mxGeometry x="110" y="410" width="120" height="60" as="geometry" />
        </mxCell>
        <mxCell id="tOTZb1gv-i5D8va3ve_L-31" style="edgeStyle=orthogonalEdgeStyle;rounded=0;orthogonalLoop=1;jettySize=auto;html=1;exitX=0;exitY=0.5;exitDx=0;exitDy=0;exitPerimeter=0;entryX=0;entryY=0.5;entryDx=0;entryDy=0;strokeWidth=3;endArrow=none;endFill=0;dashed=1;fillColor=#0050ef;strokeColor=#001DBC;fontFamily=CMU Typewriter Text;" parent="1" source="tOTZb1gv-i5D8va3ve_L-2" target="tOTZb1gv-i5D8va3ve_L-19" edge="1">
          <mxGeometry relative="1" as="geometry">
            <Array as="points">
              <mxPoint x="10" y="100" />
              <mxPoint x="10" y="540" />
            </Array>
          </mxGeometry>
        </mxCell>
        <mxCell id="tOTZb1gv-i5D8va3ve_L-56" value="UDP/TCP&lt;br&gt;(Optional)" style="edgeLabel;html=1;align=center;verticalAlign=middle;resizable=0;points=[];fontFamily=CMU Typewriter Text;" parent="tOTZb1gv-i5D8va3ve_L-31" vertex="1" connectable="0">
          <mxGeometry x="-0.4007" y="1" relative="1" as="geometry">
            <mxPoint x="29" y="19" as="offset" />
          </mxGeometry>
        </mxCell>
        <mxCell id="tOTZb1gv-i5D8va3ve_L-2" value="" style="html=1;whiteSpace=wrap;shape=isoCube2;backgroundOutline=1;isoAngle=15;strokeWidth=2;fillColor=#dae8fc;strokeColor=#6c8ebf;fontFamily=CMU Typewriter Text;" parent="1" vertex="1">
          <mxGeometry x="125" y="50" width="90" height="100" as="geometry" />
        </mxCell>
        <mxCell id="tOTZb1gv-i5D8va3ve_L-3" value="Thetis&lt;br&gt;Calibration Cube" style="text;html=1;strokeColor=none;fillColor=none;align=center;verticalAlign=middle;whiteSpace=wrap;rounded=0;fontFamily=CMU Typewriter Text;" parent="1" vertex="1">
          <mxGeometry x="110" y="10" width="120" height="30" as="geometry" />
        </mxCell>
        <mxCell id="tOTZb1gv-i5D8va3ve_L-4" value="Calibration Plate" style="rounded=0;whiteSpace=wrap;html=1;strokeWidth=2;fontFamily=CMU Typewriter Text;" parent="1" vertex="1">
          <mxGeometry x="30" y="160" width="280" height="20" as="geometry" />
        </mxCell>
        <mxCell id="tOTZb1gv-i5D8va3ve_L-5" value="Lazy Susan Bearing" style="rounded=0;whiteSpace=wrap;html=1;strokeWidth=2;fontFamily=CMU Typewriter Text;" parent="1" vertex="1">
          <mxGeometry x="100" y="220" width="140" height="20" as="geometry" />
        </mxCell>
        <mxCell id="tOTZb1gv-i5D8va3ve_L-10" style="edgeStyle=orthogonalEdgeStyle;rounded=0;orthogonalLoop=1;jettySize=auto;html=1;exitX=0.5;exitY=1;exitDx=0;exitDy=0;entryX=0.5;entryY=0;entryDx=0;entryDy=0;strokeWidth=3;endArrow=none;endFill=0;dashed=1;fontFamily=CMU Typewriter Text;" parent="1" source="tOTZb1gv-i5D8va3ve_L-8" target="tOTZb1gv-i5D8va3ve_L-9" edge="1">
          <mxGeometry relative="1" as="geometry" />
        </mxCell>
        <mxCell id="tOTZb1gv-i5D8va3ve_L-55" value="Sense" style="edgeLabel;html=1;align=center;verticalAlign=middle;resizable=0;points=[];fontFamily=CMU Typewriter Text;" parent="tOTZb1gv-i5D8va3ve_L-10" vertex="1" connectable="0">
          <mxGeometry x="-0.5133" y="-1" relative="1" as="geometry">
            <mxPoint x="26" y="10" as="offset" />
          </mxGeometry>
        </mxCell>
        <mxCell id="tOTZb1gv-i5D8va3ve_L-8" value="Magnet" style="rounded=0;whiteSpace=wrap;html=1;strokeWidth=2;fontFamily=CMU Typewriter Text;" parent="1" vertex="1">
          <mxGeometry x="260" y="180" width="50" height="20" as="geometry" />
        </mxCell>
        <mxCell id="tOTZb1gv-i5D8va3ve_L-17" style="edgeStyle=orthogonalEdgeStyle;rounded=0;orthogonalLoop=1;jettySize=auto;html=1;exitX=1;exitY=0.5;exitDx=0;exitDy=0;entryX=0.5;entryY=0;entryDx=0;entryDy=0;strokeWidth=3;endArrow=none;endFill=0;fillColor=#0050ef;strokeColor=#001DBC;fontFamily=CMU Typewriter Text;" parent="1" source="tOTZb1gv-i5D8va3ve_L-9" target="tOTZb1gv-i5D8va3ve_L-15" edge="1">
          <mxGeometry relative="1" as="geometry" />
        </mxCell>
        <mxCell id="tOTZb1gv-i5D8va3ve_L-54" value="I2C" style="edgeLabel;html=1;align=center;verticalAlign=middle;resizable=0;points=[];fontFamily=CMU Typewriter Text;" parent="tOTZb1gv-i5D8va3ve_L-17" vertex="1" connectable="0">
          <mxGeometry x="0.4384" y="1" relative="1" as="geometry">
            <mxPoint x="19" y="1" as="offset" />
          </mxGeometry>
        </mxCell>
        <mxCell id="tOTZb1gv-i5D8va3ve_L-27" style="edgeStyle=orthogonalEdgeStyle;rounded=0;orthogonalLoop=1;jettySize=auto;html=1;exitX=1;exitY=0.75;exitDx=0;exitDy=0;entryX=0.456;entryY=-0.018;entryDx=0;entryDy=0;entryPerimeter=0;strokeWidth=3;endArrow=none;endFill=0;strokeColor=#FF3333;fontFamily=CMU Typewriter Text;" parent="1" source="tOTZb1gv-i5D8va3ve_L-9" target="tOTZb1gv-i5D8va3ve_L-15" edge="1">
          <mxGeometry relative="1" as="geometry" />
        </mxCell>
        <mxCell id="tOTZb1gv-i5D8va3ve_L-53" value="5V" style="edgeLabel;html=1;align=center;verticalAlign=middle;resizable=0;points=[];fontFamily=CMU Typewriter Text;" parent="tOTZb1gv-i5D8va3ve_L-27" vertex="1" connectable="0">
          <mxGeometry x="0.4067" y="-1" relative="1" as="geometry">
            <mxPoint x="-14" as="offset" />
          </mxGeometry>
        </mxCell>
        <mxCell id="tOTZb1gv-i5D8va3ve_L-9" value="MLX90393" style="rounded=0;whiteSpace=wrap;html=1;strokeWidth=2;fillColor=#dae8fc;strokeColor=#6c8ebf;fontFamily=CMU Typewriter Text;" parent="1" vertex="1">
          <mxGeometry x="250" y="240" width="70" height="20" as="geometry" />
        </mxCell>
        <mxCell id="tOTZb1gv-i5D8va3ve_L-18" style="edgeStyle=orthogonalEdgeStyle;rounded=0;orthogonalLoop=1;jettySize=auto;html=1;exitX=1;exitY=0.5;exitDx=0;exitDy=0;entryX=0;entryY=0.5;entryDx=0;entryDy=0;strokeWidth=3;endArrow=none;endFill=0;fillColor=#0050ef;strokeColor=#001DBC;fontFamily=CMU Typewriter Text;" parent="1" source="tOTZb1gv-i5D8va3ve_L-11" target="tOTZb1gv-i5D8va3ve_L-15" edge="1">
          <mxGeometry relative="1" as="geometry" />
        </mxCell>
        <mxCell id="tOTZb1gv-i5D8va3ve_L-52" value="SPI" style="edgeLabel;html=1;align=center;verticalAlign=middle;resizable=0;points=[];fontFamily=CMU Typewriter Text;" parent="tOTZb1gv-i5D8va3ve_L-18" vertex="1" connectable="0">
          <mxGeometry x="-0.0704" y="-1" relative="1" as="geometry">
            <mxPoint x="16" y="7" as="offset" />
          </mxGeometry>
        </mxCell>
        <mxCell id="tOTZb1gv-i5D8va3ve_L-28" style="edgeStyle=orthogonalEdgeStyle;rounded=0;orthogonalLoop=1;jettySize=auto;html=1;exitX=1;exitY=0.75;exitDx=0;exitDy=0;entryX=0.003;entryY=0.609;entryDx=0;entryDy=0;entryPerimeter=0;strokeWidth=3;endArrow=none;endFill=0;strokeColor=#FF3333;fontFamily=CMU Typewriter Text;" parent="1" edge="1">
          <mxGeometry relative="1" as="geometry">
            <mxPoint x="239.60000000000002" y="295" as="sourcePoint" />
            <mxPoint x="309.96000000000004" y="346.53999999999996" as="targetPoint" />
            <Array as="points">
              <mxPoint x="270" y="295" />
              <mxPoint x="270" y="344" />
              <mxPoint x="310" y="344" />
            </Array>
          </mxGeometry>
        </mxCell>
        <mxCell id="tOTZb1gv-i5D8va3ve_L-51" value="5V" style="edgeLabel;html=1;align=center;verticalAlign=middle;resizable=0;points=[];fontFamily=CMU Typewriter Text;" parent="tOTZb1gv-i5D8va3ve_L-28" vertex="1" connectable="0">
          <mxGeometry x="-0.1196" y="1" relative="1" as="geometry">
            <mxPoint x="-11" as="offset" />
          </mxGeometry>
        </mxCell>
        <mxCell id="tOTZb1gv-i5D8va3ve_L-11" value="AMT22 Absolute Encoder" style="rounded=0;whiteSpace=wrap;html=1;strokeWidth=2;fillColor=#dae8fc;strokeColor=#6c8ebf;fontFamily=CMU Typewriter Text;" parent="1" vertex="1">
          <mxGeometry x="100" y="270" width="140" height="30" as="geometry" />
        </mxCell>
        <mxCell id="tOTZb1gv-i5D8va3ve_L-26" style="edgeStyle=orthogonalEdgeStyle;rounded=0;orthogonalLoop=1;jettySize=auto;html=1;exitX=0.75;exitY=1;exitDx=0;exitDy=0;entryX=0.75;entryY=0;entryDx=0;entryDy=0;strokeWidth=3;endArrow=none;endFill=0;fillColor=#0050ef;strokeColor=#001DBC;fontFamily=CMU Typewriter Text;" parent="1" source="tOTZb1gv-i5D8va3ve_L-14" target="tOTZb1gv-i5D8va3ve_L-19" edge="1">
          <mxGeometry relative="1" as="geometry" />
        </mxCell>
        <mxCell id="tOTZb1gv-i5D8va3ve_L-33" value="SPI" style="edgeLabel;html=1;align=center;verticalAlign=middle;resizable=0;points=[];rotation=-90;fontFamily=CMU Typewriter Text;" parent="tOTZb1gv-i5D8va3ve_L-26" vertex="1" connectable="0">
          <mxGeometry x="-0.4452" relative="1" as="geometry">
            <mxPoint x="-10" y="9" as="offset" />
          </mxGeometry>
        </mxCell>
        <mxCell id="tOTZb1gv-i5D8va3ve_L-29" style="edgeStyle=orthogonalEdgeStyle;rounded=0;orthogonalLoop=1;jettySize=auto;html=1;exitX=0.25;exitY=0;exitDx=0;exitDy=0;entryX=0.25;entryY=1;entryDx=0;entryDy=0;strokeWidth=3;endArrow=none;endFill=0;fillColor=#a20025;strokeColor=#FF3333;fontFamily=CMU Typewriter Text;" parent="1" source="tOTZb1gv-i5D8va3ve_L-14" target="tOTZb1gv-i5D8va3ve_L-15" edge="1">
          <mxGeometry relative="1" as="geometry" />
        </mxCell>
        <mxCell id="tOTZb1gv-i5D8va3ve_L-50" value="5V" style="edgeLabel;html=1;align=center;verticalAlign=middle;resizable=0;points=[];rotation=-90;fontFamily=CMU Typewriter Text;" parent="tOTZb1gv-i5D8va3ve_L-29" vertex="1" connectable="0">
          <mxGeometry x="0.3917" relative="1" as="geometry">
            <mxPoint x="-10" y="8" as="offset" />
          </mxGeometry>
        </mxCell>
        <mxCell id="tOTZb1gv-i5D8va3ve_L-14" value="DRV8825 HAT" style="rounded=0;whiteSpace=wrap;html=1;strokeWidth=2;fillColor=#fff2cc;strokeColor=#d6b656;fontFamily=CMU Typewriter Text;" parent="1" vertex="1">
          <mxGeometry x="310" y="410" width="120" height="60" as="geometry" />
        </mxCell>
        <mxCell id="tOTZb1gv-i5D8va3ve_L-15" value="Qwiic HAT" style="rounded=0;whiteSpace=wrap;html=1;strokeWidth=2;fillColor=#fff2cc;strokeColor=#d6b656;fontFamily=CMU Typewriter Text;" parent="1" vertex="1">
          <mxGeometry x="310" y="310" width="120" height="60" as="geometry" />
        </mxCell>
        <mxCell id="tOTZb1gv-i5D8va3ve_L-19" value="Raspberry Pi 4" style="rounded=0;whiteSpace=wrap;html=1;strokeWidth=2;fillColor=#fff2cc;strokeColor=#d6b656;fontFamily=CMU Typewriter Text;" parent="1" vertex="1">
          <mxGeometry x="310" y="510" width="120" height="60" as="geometry" />
        </mxCell>
        <mxCell id="tOTZb1gv-i5D8va3ve_L-23" style="edgeStyle=orthogonalEdgeStyle;rounded=0;orthogonalLoop=1;jettySize=auto;html=1;exitX=0;exitY=0.5;exitDx=0;exitDy=0;entryX=1;entryY=0.5;entryDx=0;entryDy=0;endArrow=none;endFill=0;strokeWidth=3;strokeColor=#FF3333;fontFamily=CMU Typewriter Text;" parent="1" source="tOTZb1gv-i5D8va3ve_L-22" target="tOTZb1gv-i5D8va3ve_L-14" edge="1">
          <mxGeometry relative="1" as="geometry" />
        </mxCell>
        <mxCell id="tOTZb1gv-i5D8va3ve_L-48" value="12V" style="edgeLabel;html=1;align=center;verticalAlign=middle;resizable=0;points=[];fontFamily=CMU Typewriter Text;" parent="tOTZb1gv-i5D8va3ve_L-23" vertex="1" connectable="0">
          <mxGeometry x="0.1944" relative="1" as="geometry">
            <mxPoint y="-10" as="offset" />
          </mxGeometry>
        </mxCell>
        <mxCell id="tOTZb1gv-i5D8va3ve_L-22" value="Power Supply" style="rounded=0;whiteSpace=wrap;html=1;strokeWidth=2;fillColor=#f8cecc;strokeColor=#b85450;fontFamily=CMU Typewriter Text;" parent="1" vertex="1">
          <mxGeometry x="490" y="410" width="120" height="60" as="geometry" />
        </mxCell>
        <mxCell id="tOTZb1gv-i5D8va3ve_L-34" style="edgeStyle=orthogonalEdgeStyle;rounded=0;orthogonalLoop=1;jettySize=auto;html=1;exitX=0.75;exitY=1;exitDx=0;exitDy=0;entryX=0.75;entryY=0;entryDx=0;entryDy=0;strokeWidth=3;endArrow=none;endFill=0;fillColor=#0050ef;strokeColor=#001DBC;fontFamily=CMU Typewriter Text;" parent="1" edge="1">
          <mxGeometry relative="1" as="geometry">
            <mxPoint x="380" y="470" as="sourcePoint" />
            <mxPoint x="380" y="510" as="targetPoint" />
          </mxGeometry>
        </mxCell>
        <mxCell id="tOTZb1gv-i5D8va3ve_L-35" value="EN" style="edgeLabel;html=1;align=center;verticalAlign=middle;resizable=0;points=[];rotation=-90;fontFamily=CMU Typewriter Text;" parent="tOTZb1gv-i5D8va3ve_L-34" vertex="1" connectable="0">
          <mxGeometry x="-0.4452" relative="1" as="geometry">
            <mxPoint x="-10" y="9" as="offset" />
          </mxGeometry>
        </mxCell>
        <mxCell id="tOTZb1gv-i5D8va3ve_L-36" style="edgeStyle=orthogonalEdgeStyle;rounded=0;orthogonalLoop=1;jettySize=auto;html=1;exitX=0.75;exitY=1;exitDx=0;exitDy=0;entryX=0.75;entryY=0;entryDx=0;entryDy=0;strokeWidth=3;endArrow=none;endFill=0;fillColor=#0050ef;strokeColor=#001DBC;fontFamily=CMU Typewriter Text;" parent="1" edge="1">
          <mxGeometry relative="1" as="geometry">
            <mxPoint x="360" y="470" as="sourcePoint" />
            <mxPoint x="360" y="510" as="targetPoint" />
            <Array as="points">
              <mxPoint x="360" y="490" />
              <mxPoint x="360" y="490" />
            </Array>
          </mxGeometry>
        </mxCell>
        <mxCell id="tOTZb1gv-i5D8va3ve_L-37" value="STEP" style="edgeLabel;html=1;align=center;verticalAlign=middle;resizable=0;points=[];rotation=-90;fontFamily=CMU Typewriter Text;" parent="tOTZb1gv-i5D8va3ve_L-36" vertex="1" connectable="0">
          <mxGeometry x="-0.4452" relative="1" as="geometry">
            <mxPoint x="-10" y="9" as="offset" />
          </mxGeometry>
        </mxCell>
        <mxCell id="tOTZb1gv-i5D8va3ve_L-38" style="edgeStyle=orthogonalEdgeStyle;rounded=0;orthogonalLoop=1;jettySize=auto;html=1;exitX=0.75;exitY=1;exitDx=0;exitDy=0;entryX=0.75;entryY=0;entryDx=0;entryDy=0;strokeWidth=3;endArrow=none;endFill=0;fillColor=#0050ef;strokeColor=#001DBC;fontFamily=CMU Typewriter Text;" parent="1" edge="1">
          <mxGeometry relative="1" as="geometry">
            <mxPoint x="420" y="470" as="sourcePoint" />
            <mxPoint x="420" y="510" as="targetPoint" />
          </mxGeometry>
        </mxCell>
        <mxCell id="tOTZb1gv-i5D8va3ve_L-39" value="I2C" style="edgeLabel;html=1;align=center;verticalAlign=middle;resizable=0;points=[];rotation=-90;fontFamily=CMU Typewriter Text;" parent="tOTZb1gv-i5D8va3ve_L-38" vertex="1" connectable="0">
          <mxGeometry x="-0.4452" relative="1" as="geometry">
            <mxPoint x="-10" y="9" as="offset" />
          </mxGeometry>
        </mxCell>
        <mxCell id="tOTZb1gv-i5D8va3ve_L-40" style="edgeStyle=orthogonalEdgeStyle;rounded=0;orthogonalLoop=1;jettySize=auto;html=1;exitX=0.75;exitY=1;exitDx=0;exitDy=0;entryX=0.75;entryY=0;entryDx=0;entryDy=0;strokeWidth=3;endArrow=none;endFill=0;fillColor=#0050ef;strokeColor=#001DBC;fontFamily=CMU Typewriter Text;" parent="1" edge="1">
          <mxGeometry relative="1" as="geometry">
            <mxPoint x="340" y="470" as="sourcePoint" />
            <mxPoint x="340" y="510" as="targetPoint" />
            <Array as="points">
              <mxPoint x="340" y="490" />
              <mxPoint x="340" y="490" />
            </Array>
          </mxGeometry>
        </mxCell>
        <mxCell id="tOTZb1gv-i5D8va3ve_L-41" value="DIR" style="edgeLabel;html=1;align=center;verticalAlign=middle;resizable=0;points=[];rotation=-90;fontFamily=CMU Typewriter Text;" parent="tOTZb1gv-i5D8va3ve_L-40" vertex="1" connectable="0">
          <mxGeometry x="-0.4452" relative="1" as="geometry">
            <mxPoint x="-10" y="9" as="offset" />
          </mxGeometry>
        </mxCell>
        <mxCell id="tOTZb1gv-i5D8va3ve_L-42" style="edgeStyle=orthogonalEdgeStyle;rounded=0;orthogonalLoop=1;jettySize=auto;html=1;exitX=0.75;exitY=1;exitDx=0;exitDy=0;entryX=0.75;entryY=0;entryDx=0;entryDy=0;strokeWidth=3;endArrow=none;endFill=0;fillColor=#0050ef;strokeColor=#FF3333;fontFamily=CMU Typewriter Text;" parent="1" edge="1">
          <mxGeometry relative="1" as="geometry">
            <mxPoint x="320" y="470" as="sourcePoint" />
            <mxPoint x="320" y="510" as="targetPoint" />
            <Array as="points">
              <mxPoint x="320" y="490" />
              <mxPoint x="320" y="490" />
            </Array>
          </mxGeometry>
        </mxCell>
        <mxCell id="tOTZb1gv-i5D8va3ve_L-43" value="5V" style="edgeLabel;html=1;align=center;verticalAlign=middle;resizable=0;points=[];rotation=-90;fontFamily=CMU Typewriter Text;" parent="tOTZb1gv-i5D8va3ve_L-42" vertex="1" connectable="0">
          <mxGeometry x="-0.4452" relative="1" as="geometry">
            <mxPoint x="-10" y="9" as="offset" />
          </mxGeometry>
        </mxCell>
        <mxCell id="tOTZb1gv-i5D8va3ve_L-44" style="edgeStyle=orthogonalEdgeStyle;rounded=0;orthogonalLoop=1;jettySize=auto;html=1;exitX=0.75;exitY=1;exitDx=0;exitDy=0;entryX=0.75;entryY=0;entryDx=0;entryDy=0;strokeWidth=3;endArrow=none;endFill=0;fillColor=#0050ef;strokeColor=#001DBC;fontFamily=CMU Typewriter Text;" parent="1" edge="1">
          <mxGeometry relative="1" as="geometry">
            <mxPoint x="420" y="370" as="sourcePoint" />
            <mxPoint x="420" y="410" as="targetPoint" />
          </mxGeometry>
        </mxCell>
        <mxCell id="tOTZb1gv-i5D8va3ve_L-45" value="I2C" style="edgeLabel;html=1;align=center;verticalAlign=middle;resizable=0;points=[];rotation=-90;fontFamily=CMU Typewriter Text;" parent="tOTZb1gv-i5D8va3ve_L-44" vertex="1" connectable="0">
          <mxGeometry x="-0.4452" relative="1" as="geometry">
            <mxPoint x="-10" y="9" as="offset" />
          </mxGeometry>
        </mxCell>
        <mxCell id="tOTZb1gv-i5D8va3ve_L-46" style="edgeStyle=orthogonalEdgeStyle;rounded=0;orthogonalLoop=1;jettySize=auto;html=1;exitX=0.75;exitY=1;exitDx=0;exitDy=0;entryX=0.75;entryY=0;entryDx=0;entryDy=0;strokeWidth=3;endArrow=none;endFill=0;fillColor=#0050ef;strokeColor=#001DBC;fontFamily=CMU Typewriter Text;" parent="1" edge="1">
          <mxGeometry relative="1" as="geometry">
            <mxPoint x="400" y="370" as="sourcePoint" />
            <mxPoint x="400" y="410" as="targetPoint" />
          </mxGeometry>
        </mxCell>
        <mxCell id="tOTZb1gv-i5D8va3ve_L-47" value="SPI" style="edgeLabel;html=1;align=center;verticalAlign=middle;resizable=0;points=[];rotation=-90;fontFamily=CMU Typewriter Text;" parent="tOTZb1gv-i5D8va3ve_L-46" vertex="1" connectable="0">
          <mxGeometry x="-0.4452" relative="1" as="geometry">
            <mxPoint x="-10" y="9" as="offset" />
          </mxGeometry>
        </mxCell>
        <mxCell id="0twQuyHkZJd6qWiMJnPO-1" value="" style="rounded=0;whiteSpace=wrap;html=1;strokeWidth=2;fontFamily=CMU Typewriter Text;" parent="1" vertex="1">
          <mxGeometry x="530" y="20" width="250" height="290" as="geometry" />
        </mxCell>
        <mxCell id="0twQuyHkZJd6qWiMJnPO-2" value="&lt;font style=&quot;font-size: 30px;&quot;&gt;Legend&lt;/font&gt;" style="rounded=0;whiteSpace=wrap;html=1;strokeWidth=2;fontFamily=CMU Typewriter Text;" parent="1" vertex="1">
          <mxGeometry x="530" y="20" width="250" height="60" as="geometry" />
        </mxCell>
        <mxCell id="0twQuyHkZJd6qWiMJnPO-3" style="rounded=0;orthogonalLoop=1;jettySize=auto;html=1;exitX=0.056;exitY=0.167;exitDx=0;exitDy=0;entryX=0.167;entryY=0.167;entryDx=0;entryDy=0;strokeWidth=3;exitPerimeter=0;entryPerimeter=0;fillColor=#0050ef;strokeColor=#001DBC;fontFamily=CMU Typewriter Text;endArrow=none;endFill=0;" parent="1" edge="1">
          <mxGeometry relative="1" as="geometry">
            <mxPoint x="540" y="105" as="sourcePoint" />
            <mxPoint x="579.9999999999999" y="105" as="targetPoint" />
          </mxGeometry>
        </mxCell>
        <mxCell id="0twQuyHkZJd6qWiMJnPO-4" value="&lt;font style=&quot;font-size: 14px;&quot;&gt;Data pipeline&lt;/font&gt;" style="text;html=1;strokeColor=none;fillColor=none;align=left;verticalAlign=middle;whiteSpace=wrap;rounded=0;fontFamily=CMU Typewriter Text;" parent="1" vertex="1">
          <mxGeometry x="590" y="90" width="190" height="30" as="geometry" />
        </mxCell>
        <mxCell id="0twQuyHkZJd6qWiMJnPO-7" style="rounded=0;orthogonalLoop=1;jettySize=auto;html=1;exitX=0.056;exitY=0.167;exitDx=0;exitDy=0;entryX=0.167;entryY=0.167;entryDx=0;entryDy=0;strokeWidth=3;exitPerimeter=0;entryPerimeter=0;fillColor=#60a917;strokeColor=#FF3333;endArrow=none;endFill=0;fontFamily=CMU Typewriter Text;" parent="1" edge="1">
          <mxGeometry relative="1" as="geometry">
            <mxPoint x="540" y="135" as="sourcePoint" />
            <mxPoint x="580" y="135" as="targetPoint" />
          </mxGeometry>
        </mxCell>
        <mxCell id="0twQuyHkZJd6qWiMJnPO-8" value="&lt;span style=&quot;font-size: 14px;&quot;&gt;Power pipeline&lt;/span&gt;" style="text;html=1;strokeColor=none;fillColor=none;align=left;verticalAlign=middle;whiteSpace=wrap;rounded=0;fontFamily=CMU Typewriter Text;" parent="1" vertex="1">
          <mxGeometry x="590" y="120" width="190" height="30" as="geometry" />
        </mxCell>
        <mxCell id="0twQuyHkZJd6qWiMJnPO-9" style="rounded=0;orthogonalLoop=1;jettySize=auto;html=1;exitX=0.056;exitY=0.167;exitDx=0;exitDy=0;entryX=0.167;entryY=0.167;entryDx=0;entryDy=0;strokeWidth=3;exitPerimeter=0;entryPerimeter=0;fillColor=#60a917;strokeColor=#000000;endArrow=none;endFill=0;fontFamily=CMU Typewriter Text;" parent="1" edge="1">
          <mxGeometry relative="1" as="geometry">
            <mxPoint x="540" y="165" as="sourcePoint" />
            <mxPoint x="580" y="165" as="targetPoint" />
          </mxGeometry>
        </mxCell>
        <mxCell id="0twQuyHkZJd6qWiMJnPO-10" value="&lt;font style=&quot;font-size: 14px;&quot;&gt;Mechanical connection&lt;/font&gt;" style="text;html=1;strokeColor=none;fillColor=none;align=left;verticalAlign=middle;whiteSpace=wrap;rounded=0;fontFamily=CMU Typewriter Text;" parent="1" vertex="1">
          <mxGeometry x="590" y="150" width="190" height="30" as="geometry" />
        </mxCell>
        <mxCell id="0twQuyHkZJd6qWiMJnPO-12" value="&lt;font style=&quot;font-size: 14px;&quot;&gt;Electromechanical component&lt;/font&gt;" style="text;html=1;strokeColor=none;fillColor=none;align=left;verticalAlign=middle;whiteSpace=wrap;rounded=0;fontFamily=CMU Typewriter Text;" parent="1" vertex="1">
          <mxGeometry x="590" y="210" width="190" height="30" as="geometry" />
        </mxCell>
        <mxCell id="0twQuyHkZJd6qWiMJnPO-14" value="&lt;font style=&quot;font-size: 14px;&quot;&gt;Sensor&lt;/font&gt;" style="text;html=1;strokeColor=none;fillColor=none;align=left;verticalAlign=middle;whiteSpace=wrap;rounded=0;fontFamily=CMU Typewriter Text;" parent="1" vertex="1">
          <mxGeometry x="590" y="240" width="190" height="30" as="geometry" />
        </mxCell>
        <mxCell id="0twQuyHkZJd6qWiMJnPO-15" value="" style="rounded=0;whiteSpace=wrap;html=1;fontFamily=CMU Typewriter Text;strokeWidth=2;fillColor=#f8cecc;strokeColor=#b85450;" parent="1" vertex="1">
          <mxGeometry x="540" y="275" width="40" height="20" as="geometry" />
        </mxCell>
        <mxCell id="0twQuyHkZJd6qWiMJnPO-16" value="&lt;font style=&quot;font-size: 14px;&quot;&gt;Power Device&lt;/font&gt;" style="text;html=1;strokeColor=none;fillColor=none;align=left;verticalAlign=middle;whiteSpace=wrap;rounded=0;fontFamily=CMU Typewriter Text;" parent="1" vertex="1">
          <mxGeometry x="590" y="270" width="190" height="30" as="geometry" />
        </mxCell>
        <mxCell id="0twQuyHkZJd6qWiMJnPO-18" value="" style="rounded=0;whiteSpace=wrap;html=1;fontFamily=CMU Typewriter Text;strokeWidth=2;fillColor=#dae8fc;strokeColor=#6c8ebf;" parent="1" vertex="1">
          <mxGeometry x="540" y="245" width="40" height="20" as="geometry" />
        </mxCell>
        <mxCell id="0twQuyHkZJd6qWiMJnPO-19" value="" style="rounded=0;whiteSpace=wrap;html=1;fontFamily=CMU Typewriter Text;strokeWidth=2;fillColor=#fff2cc;strokeColor=#d6b656;" parent="1" vertex="1">
          <mxGeometry x="540" y="215" width="40" height="20" as="geometry" />
        </mxCell>
        <mxCell id="0twQuyHkZJd6qWiMJnPO-21" value="" style="rounded=0;whiteSpace=wrap;html=1;fontFamily=CMU Typewriter Text;strokeWidth=2;" parent="1" vertex="1">
          <mxGeometry x="540" y="185" width="40" height="20" as="geometry" />
        </mxCell>
        <mxCell id="0twQuyHkZJd6qWiMJnPO-22" value="&lt;span style=&quot;font-size: 14px;&quot;&gt;Mechanical component&lt;/span&gt;" style="text;html=1;strokeColor=none;fillColor=none;align=left;verticalAlign=middle;whiteSpace=wrap;rounded=0;fontFamily=CMU Typewriter Text;" parent="1" vertex="1">
          <mxGeometry x="590" y="180" width="190" height="30" as="geometry" />
        </mxCell>
      </root>
    </mxGraphModel>
  </diagram>
  <diagram name="ROS Architecture" id="WmgwrJzL_DIjoPacxGYn">
    <mxGraphModel dx="1548" dy="902" grid="1" gridSize="10" guides="1" tooltips="1" connect="1" arrows="1" fold="1" page="1" pageScale="1" pageWidth="1100" pageHeight="850" math="0" shadow="0">
      <root>
        <mxCell id="0" />
        <mxCell id="1" parent="0" />
        <mxCell id="5c4M8HBMnXqBhfR9mkvd-1" value="xioAPI-compatible Device" style="rounded=0;whiteSpace=wrap;html=1;fontFamily=CMU Typewriter Text;strokeWidth=2;" parent="1" vertex="1">
          <mxGeometry x="55" y="30" width="120" height="60" as="geometry" />
        </mxCell>
        <mxCell id="5c4M8HBMnXqBhfR9mkvd-32" style="edgeStyle=orthogonalEdgeStyle;rounded=0;orthogonalLoop=1;jettySize=auto;html=1;exitX=0.5;exitY=1;exitDx=0;exitDy=0;entryX=0.441;entryY=0.006;entryDx=0;entryDy=0;entryPerimeter=0;strokeWidth=3;fillColor=#60a917;strokeColor=#2D7600;fontFamily=CMU Typewriter Text;" parent="1" source="5c4M8HBMnXqBhfR9mkvd-2" target="5c4M8HBMnXqBhfR9mkvd-6" edge="1">
          <mxGeometry relative="1" as="geometry" />
        </mxCell>
        <mxCell id="5c4M8HBMnXqBhfR9mkvd-33" value="/stop_motor" style="edgeLabel;html=1;align=center;verticalAlign=middle;resizable=0;points=[];rotation=0;fontFamily=CMU Typewriter Text;" parent="5c4M8HBMnXqBhfR9mkvd-32" vertex="1" connectable="0">
          <mxGeometry x="-0.0878" relative="1" as="geometry">
            <mxPoint x="-35" y="-16" as="offset" />
          </mxGeometry>
        </mxCell>
        <mxCell id="5c4M8HBMnXqBhfR9mkvd-2" value="" style="ellipse;whiteSpace=wrap;html=1;fontFamily=CMU Typewriter Text;strokeWidth=2;fillColor=#e1d5e7;strokeColor=#9673a6;" parent="1" vertex="1">
          <mxGeometry x="40" y="130" width="150" height="130" as="geometry" />
        </mxCell>
        <mxCell id="5c4M8HBMnXqBhfR9mkvd-3" value="x-IMU3 Lib" style="rounded=1;whiteSpace=wrap;html=1;fontFamily=CMU Typewriter Text;strokeWidth=2;fillColor=#1ba1e2;fontColor=#ffffff;strokeColor=#006EAF;" parent="1" vertex="1">
          <mxGeometry x="80" y="160" width="70" height="30" as="geometry" />
        </mxCell>
        <mxCell id="5c4M8HBMnXqBhfR9mkvd-4" style="edgeStyle=orthogonalEdgeStyle;rounded=0;orthogonalLoop=1;jettySize=auto;html=1;exitX=0.5;exitY=1;exitDx=0;exitDy=0;entryX=0.5;entryY=0;entryDx=0;entryDy=0;fontFamily=CMU Typewriter Text;strokeWidth=3;endArrow=none;endFill=0;fillColor=#e51400;strokeColor=#FF3333;" parent="1" source="5c4M8HBMnXqBhfR9mkvd-1" target="5c4M8HBMnXqBhfR9mkvd-3" edge="1">
          <mxGeometry relative="1" as="geometry" />
        </mxCell>
        <mxCell id="5c4M8HBMnXqBhfR9mkvd-45" value="UDP/TCP" style="edgeLabel;html=1;align=center;verticalAlign=middle;resizable=0;points=[];fontFamily=CMU Typewriter Text;" parent="5c4M8HBMnXqBhfR9mkvd-4" vertex="1" connectable="0">
          <mxGeometry x="-0.3505" y="-1" relative="1" as="geometry">
            <mxPoint x="31" y="-3" as="offset" />
          </mxGeometry>
        </mxCell>
        <mxCell id="5c4M8HBMnXqBhfR9mkvd-5" value="&lt;font style=&quot;font-size: 18px;&quot;&gt;&lt;b&gt;XioDeviceNode&lt;/b&gt;&lt;/font&gt;" style="text;html=1;strokeColor=none;fillColor=none;align=center;verticalAlign=middle;whiteSpace=wrap;rounded=0;strokeWidth=2;fontSize=18;fontFamily=CMU Typewriter Text;" parent="1" vertex="1">
          <mxGeometry x="85" y="210" width="60" height="30" as="geometry" />
        </mxCell>
        <mxCell id="5c4M8HBMnXqBhfR9mkvd-6" value="" style="ellipse;whiteSpace=wrap;html=1;fontFamily=CMU Typewriter Text;strokeWidth=2;fillColor=#e1d5e7;strokeColor=#9673a6;" parent="1" vertex="1">
          <mxGeometry x="10" y="360" width="240" height="210" as="geometry" />
        </mxCell>
        <mxCell id="5c4M8HBMnXqBhfR9mkvd-34" style="edgeStyle=orthogonalEdgeStyle;rounded=0;orthogonalLoop=1;jettySize=auto;html=1;exitX=0.25;exitY=1;exitDx=0;exitDy=0;entryX=0.351;entryY=0.04;entryDx=0;entryDy=0;entryPerimeter=0;endArrow=none;endFill=0;strokeWidth=3;strokeColor=#FF3333;fontFamily=CMU Typewriter Text;" parent="1" source="5c4M8HBMnXqBhfR9mkvd-7" target="5c4M8HBMnXqBhfR9mkvd-9" edge="1">
          <mxGeometry relative="1" as="geometry">
            <mxPoint x="112.5" y="595" as="sourcePoint" />
          </mxGeometry>
        </mxCell>
        <mxCell id="5c4M8HBMnXqBhfR9mkvd-37" value="STEP" style="edgeLabel;html=1;align=center;verticalAlign=middle;resizable=0;points=[];rotation=-90;fontFamily=CMU Typewriter Text;" parent="5c4M8HBMnXqBhfR9mkvd-34" vertex="1" connectable="0">
          <mxGeometry x="0.3358" y="-2" relative="1" as="geometry">
            <mxPoint x="-7" y="-15" as="offset" />
          </mxGeometry>
        </mxCell>
        <mxCell id="5c4M8HBMnXqBhfR9mkvd-35" style="edgeStyle=orthogonalEdgeStyle;rounded=0;orthogonalLoop=1;jettySize=auto;html=1;exitX=0.5;exitY=1;exitDx=0;exitDy=0;entryX=0.5;entryY=0;entryDx=0;entryDy=0;endArrow=none;endFill=0;strokeWidth=3;strokeColor=#FF3333;fontFamily=CMU Typewriter Text;" parent="1" source="5c4M8HBMnXqBhfR9mkvd-7" target="5c4M8HBMnXqBhfR9mkvd-9" edge="1">
          <mxGeometry relative="1" as="geometry">
            <mxPoint x="130" y="595" as="sourcePoint" />
          </mxGeometry>
        </mxCell>
        <mxCell id="5c4M8HBMnXqBhfR9mkvd-36" style="edgeStyle=orthogonalEdgeStyle;rounded=0;orthogonalLoop=1;jettySize=auto;html=1;exitX=0.75;exitY=1;exitDx=0;exitDy=0;entryX=0.65;entryY=0.022;entryDx=0;entryDy=0;entryPerimeter=0;endArrow=none;endFill=0;strokeWidth=3;strokeColor=#FF3333;fontFamily=CMU Typewriter Text;" parent="1" source="5c4M8HBMnXqBhfR9mkvd-7" target="5c4M8HBMnXqBhfR9mkvd-9" edge="1">
          <mxGeometry relative="1" as="geometry">
            <mxPoint x="147.5" y="595" as="sourcePoint" />
          </mxGeometry>
        </mxCell>
        <mxCell id="5c4M8HBMnXqBhfR9mkvd-7" value="DRV8825 Driver" style="rounded=1;whiteSpace=wrap;html=1;fontFamily=CMU Typewriter Text;strokeWidth=2;fillColor=#1ba1e2;fontColor=#ffffff;strokeColor=#006EAF;" parent="1" vertex="1">
          <mxGeometry x="95" y="520" width="70" height="30" as="geometry" />
        </mxCell>
        <mxCell id="5c4M8HBMnXqBhfR9mkvd-8" value="&lt;font style=&quot;font-size: 18px;&quot;&gt;&lt;b&gt;CalibrationPlateNode&lt;/b&gt;&lt;/font&gt;" style="text;html=1;strokeColor=none;fillColor=none;align=center;verticalAlign=middle;whiteSpace=wrap;rounded=0;strokeWidth=2;fontSize=18;fontFamily=CMU Typewriter Text;" parent="1" vertex="1">
          <mxGeometry x="100" y="450" width="60" height="30" as="geometry" />
        </mxCell>
        <mxCell id="5c4M8HBMnXqBhfR9mkvd-40" style="edgeStyle=orthogonalEdgeStyle;rounded=0;orthogonalLoop=1;jettySize=auto;html=1;exitX=0.5;exitY=1;exitDx=0;exitDy=0;entryX=0.5;entryY=0;entryDx=0;entryDy=0;strokeWidth=3;endArrow=none;endFill=0;fontFamily=CMU Typewriter Text;" parent="1" source="5c4M8HBMnXqBhfR9mkvd-9" target="5c4M8HBMnXqBhfR9mkvd-11" edge="1">
          <mxGeometry relative="1" as="geometry" />
        </mxCell>
        <mxCell id="5c4M8HBMnXqBhfR9mkvd-9" value="DRV8825 HAT" style="rounded=0;whiteSpace=wrap;html=1;fontFamily=CMU Typewriter Text;strokeWidth=2;" parent="1" vertex="1">
          <mxGeometry x="70" y="645" width="120" height="60" as="geometry" />
        </mxCell>
        <mxCell id="5c4M8HBMnXqBhfR9mkvd-41" style="edgeStyle=orthogonalEdgeStyle;rounded=0;orthogonalLoop=1;jettySize=auto;html=1;exitX=1;exitY=0.5;exitDx=0;exitDy=0;entryX=0;entryY=0.5;entryDx=0;entryDy=0;strokeWidth=3;endArrow=none;endFill=0;fontFamily=CMU Typewriter Text;" parent="1" source="5c4M8HBMnXqBhfR9mkvd-11" target="5c4M8HBMnXqBhfR9mkvd-13" edge="1">
          <mxGeometry relative="1" as="geometry" />
        </mxCell>
        <mxCell id="5c4M8HBMnXqBhfR9mkvd-11" value="NEMA 17 Stepper Motor" style="rounded=0;whiteSpace=wrap;html=1;fontFamily=CMU Typewriter Text;strokeWidth=2;" parent="1" vertex="1">
          <mxGeometry x="70" y="765" width="120" height="60" as="geometry" />
        </mxCell>
        <mxCell id="5c4M8HBMnXqBhfR9mkvd-12" value="" style="ellipse;whiteSpace=wrap;html=1;fontFamily=CMU Typewriter Text;strokeWidth=2;fillColor=#e1d5e7;strokeColor=#9673a6;" parent="1" vertex="1">
          <mxGeometry x="415" y="685" width="170" height="145" as="geometry" />
        </mxCell>
        <mxCell id="5c4M8HBMnXqBhfR9mkvd-43" style="edgeStyle=orthogonalEdgeStyle;rounded=0;orthogonalLoop=1;jettySize=auto;html=1;exitX=1;exitY=0.5;exitDx=0;exitDy=0;entryX=0;entryY=0.5;entryDx=0;entryDy=0;strokeWidth=3;endArrow=none;endFill=0;strokeColor=#FF3333;fontFamily=CMU Typewriter Text;" parent="1" source="5c4M8HBMnXqBhfR9mkvd-13" target="5c4M8HBMnXqBhfR9mkvd-14" edge="1">
          <mxGeometry relative="1" as="geometry" />
        </mxCell>
        <mxCell id="5c4M8HBMnXqBhfR9mkvd-44" value="SPI" style="edgeLabel;html=1;align=center;verticalAlign=middle;resizable=0;points=[];fontFamily=CMU Typewriter Text;" parent="5c4M8HBMnXqBhfR9mkvd-43" vertex="1" connectable="0">
          <mxGeometry x="-0.5309" y="-2" relative="1" as="geometry">
            <mxPoint y="-12" as="offset" />
          </mxGeometry>
        </mxCell>
        <mxCell id="5c4M8HBMnXqBhfR9mkvd-13" value="AMT222-B&lt;br&gt;Absolute Encoder" style="rounded=0;whiteSpace=wrap;html=1;fontFamily=CMU Typewriter Text;strokeWidth=2;" parent="1" vertex="1">
          <mxGeometry x="245" y="765" width="120" height="60" as="geometry" />
        </mxCell>
        <mxCell id="5c4M8HBMnXqBhfR9mkvd-14" value="AMT22 Driver" style="rounded=1;whiteSpace=wrap;html=1;fontFamily=CMU Typewriter Text;strokeWidth=2;fillColor=#1ba1e2;fontColor=#ffffff;strokeColor=#006EAF;" parent="1" vertex="1">
          <mxGeometry x="465" y="780" width="70" height="30" as="geometry" />
        </mxCell>
        <mxCell id="5c4M8HBMnXqBhfR9mkvd-15" value="&lt;font style=&quot;font-size: 18px;&quot;&gt;&lt;b&gt;AMT22Node&lt;/b&gt;&lt;/font&gt;" style="text;html=1;strokeColor=none;fillColor=none;align=center;verticalAlign=middle;whiteSpace=wrap;rounded=0;strokeWidth=2;fontSize=18;fontFamily=CMU Typewriter Text;" parent="1" vertex="1">
          <mxGeometry x="467.5" y="720" width="65" height="25" as="geometry" />
        </mxCell>
        <mxCell id="5c4M8HBMnXqBhfR9mkvd-16" value="" style="ellipse;whiteSpace=wrap;html=1;fontFamily=CMU Typewriter Text;strokeWidth=2;fillColor=#e1d5e7;strokeColor=#9673a6;" parent="1" vertex="1">
          <mxGeometry x="600" y="490" width="170" height="145" as="geometry" />
        </mxCell>
        <mxCell id="5c4M8HBMnXqBhfR9mkvd-17" value="MLX90393&lt;br&gt;Driver" style="rounded=1;whiteSpace=wrap;html=1;fontFamily=CMU Typewriter Text;strokeWidth=2;fillColor=#1ba1e2;fontColor=#ffffff;strokeColor=#006EAF;" parent="1" vertex="1">
          <mxGeometry x="650" y="585" width="70" height="30" as="geometry" />
        </mxCell>
        <mxCell id="5c4M8HBMnXqBhfR9mkvd-18" value="&lt;font style=&quot;font-size: 18px;&quot;&gt;&lt;b&gt;MLX90393Node&lt;/b&gt;&lt;/font&gt;" style="text;html=1;strokeColor=none;fillColor=none;align=center;verticalAlign=middle;whiteSpace=wrap;rounded=0;strokeWidth=2;fontSize=18;fontFamily=CMU Typewriter Text;" parent="1" vertex="1">
          <mxGeometry x="655" y="520" width="60" height="30" as="geometry" />
        </mxCell>
        <mxCell id="5c4M8HBMnXqBhfR9mkvd-63" style="edgeStyle=orthogonalEdgeStyle;rounded=0;orthogonalLoop=1;jettySize=auto;html=1;exitX=0.5;exitY=0;exitDx=0;exitDy=0;entryX=0.5;entryY=1;entryDx=0;entryDy=0;strokeWidth=3;endArrow=none;endFill=0;strokeColor=#FF3333;fontFamily=CMU Typewriter Text;" parent="1" source="5c4M8HBMnXqBhfR9mkvd-19" target="5c4M8HBMnXqBhfR9mkvd-17" edge="1">
          <mxGeometry relative="1" as="geometry" />
        </mxCell>
        <mxCell id="5c4M8HBMnXqBhfR9mkvd-64" value="I2C" style="edgeLabel;html=1;align=center;verticalAlign=middle;resizable=0;points=[];fontFamily=CMU Typewriter Text;" parent="5c4M8HBMnXqBhfR9mkvd-63" vertex="1" connectable="0">
          <mxGeometry x="-0.0366" y="-2" relative="1" as="geometry">
            <mxPoint x="23" y="3" as="offset" />
          </mxGeometry>
        </mxCell>
        <mxCell id="5c4M8HBMnXqBhfR9mkvd-19" value="MLX90393&lt;br&gt;Tri-Axial Magnetometer" style="rounded=0;whiteSpace=wrap;html=1;fontFamily=CMU Typewriter Text;strokeWidth=2;" parent="1" vertex="1">
          <mxGeometry x="625" y="675" width="120" height="60" as="geometry" />
        </mxCell>
        <mxCell id="5c4M8HBMnXqBhfR9mkvd-60" style="edgeStyle=orthogonalEdgeStyle;rounded=0;orthogonalLoop=1;jettySize=auto;html=1;exitX=0.5;exitY=0;exitDx=0;exitDy=0;entryX=0.5;entryY=1;entryDx=0;entryDy=0;endArrow=none;endFill=0;strokeWidth=3;dashed=1;fontFamily=CMU Typewriter Text;" parent="1" source="5c4M8HBMnXqBhfR9mkvd-20" target="5c4M8HBMnXqBhfR9mkvd-19" edge="1">
          <mxGeometry relative="1" as="geometry" />
        </mxCell>
        <mxCell id="5c4M8HBMnXqBhfR9mkvd-61" value="Hall Effect &lt;br&gt;Sense" style="edgeLabel;html=1;align=center;verticalAlign=middle;resizable=0;points=[];fontFamily=CMU Typewriter Text;" parent="5c4M8HBMnXqBhfR9mkvd-60" vertex="1" connectable="0">
          <mxGeometry x="0.4027" y="-2" relative="1" as="geometry">
            <mxPoint x="28" y="6" as="offset" />
          </mxGeometry>
        </mxCell>
        <mxCell id="5c4M8HBMnXqBhfR9mkvd-20" value="Neodymium Magnet" style="rounded=0;whiteSpace=wrap;html=1;fontFamily=CMU Typewriter Text;strokeWidth=2;" parent="1" vertex="1">
          <mxGeometry x="625" y="780" width="120" height="60" as="geometry" />
        </mxCell>
        <mxCell id="5c4M8HBMnXqBhfR9mkvd-21" value="" style="ellipse;whiteSpace=wrap;html=1;fontFamily=CMU Typewriter Text;strokeWidth=2;fillColor=#e1d5e7;strokeColor=#9673a6;" parent="1" vertex="1">
          <mxGeometry x="330" y="20" width="500" height="380" as="geometry" />
        </mxCell>
        <mxCell id="5c4M8HBMnXqBhfR9mkvd-22" value="&lt;font style=&quot;font-size: 18px;&quot;&gt;&lt;b&gt;CalibrationMasterNode&lt;/b&gt;&lt;/font&gt;" style="text;html=1;strokeColor=none;fillColor=none;align=center;verticalAlign=middle;whiteSpace=wrap;rounded=0;strokeWidth=2;fontFamily=CMU Typewriter Text;" parent="1" vertex="1">
          <mxGeometry x="550" y="180" width="60" height="30" as="geometry" />
        </mxCell>
        <mxCell id="5c4M8HBMnXqBhfR9mkvd-23" value="" style="endArrow=classic;html=1;rounded=0;strokeWidth=3;exitX=0.945;exitY=0.281;exitDx=0;exitDy=0;exitPerimeter=0;entryX=0.016;entryY=0.387;entryDx=0;entryDy=0;entryPerimeter=0;fillColor=#0050ef;strokeColor=#001DBC;fontFamily=CMU Typewriter Text;" parent="1" source="5c4M8HBMnXqBhfR9mkvd-2" target="5c4M8HBMnXqBhfR9mkvd-21" edge="1">
          <mxGeometry width="50" height="50" relative="1" as="geometry">
            <mxPoint x="210" y="430" as="sourcePoint" />
            <mxPoint x="260" y="380" as="targetPoint" />
          </mxGeometry>
        </mxCell>
        <mxCell id="5c4M8HBMnXqBhfR9mkvd-24" value="/inertial_measurement" style="edgeLabel;html=1;align=center;verticalAlign=middle;resizable=0;points=[];fontFamily=CMU Typewriter Text;" parent="5c4M8HBMnXqBhfR9mkvd-23" vertex="1" connectable="0">
          <mxGeometry x="0.1478" y="1" relative="1" as="geometry">
            <mxPoint x="-8" y="-14" as="offset" />
          </mxGeometry>
        </mxCell>
        <mxCell id="5c4M8HBMnXqBhfR9mkvd-28" value="" style="endArrow=classic;html=1;rounded=0;strokeWidth=3;exitX=1;exitY=0.5;exitDx=0;exitDy=0;entryX=0.001;entryY=0.464;entryDx=0;entryDy=0;entryPerimeter=0;fillColor=#60a917;strokeColor=#2D7600;fontFamily=CMU Typewriter Text;" parent="1" source="5c4M8HBMnXqBhfR9mkvd-2" target="5c4M8HBMnXqBhfR9mkvd-21" edge="1">
          <mxGeometry width="50" height="50" relative="1" as="geometry">
            <mxPoint x="192" y="177" as="sourcePoint" />
            <mxPoint x="348" y="177" as="targetPoint" />
          </mxGeometry>
        </mxCell>
        <mxCell id="5c4M8HBMnXqBhfR9mkvd-29" value="/estop" style="edgeLabel;html=1;align=center;verticalAlign=middle;resizable=0;points=[];fontFamily=CMU Typewriter Text;" parent="5c4M8HBMnXqBhfR9mkvd-28" vertex="1" connectable="0">
          <mxGeometry x="0.1478" y="1" relative="1" as="geometry">
            <mxPoint x="-11" y="-14" as="offset" />
          </mxGeometry>
        </mxCell>
        <mxCell id="5c4M8HBMnXqBhfR9mkvd-30" value="" style="endArrow=classic;html=1;rounded=0;strokeWidth=3;exitX=-0.001;exitY=0.546;exitDx=0;exitDy=0;exitPerimeter=0;entryX=0.937;entryY=0.733;entryDx=0;entryDy=0;entryPerimeter=0;fillColor=#60a917;strokeColor=#2D7600;fontFamily=CMU Typewriter Text;" parent="1" source="5c4M8HBMnXqBhfR9mkvd-21" target="5c4M8HBMnXqBhfR9mkvd-2" edge="1">
          <mxGeometry width="50" height="50" relative="1" as="geometry">
            <mxPoint x="202" y="187" as="sourcePoint" />
            <mxPoint x="358" y="187" as="targetPoint" />
          </mxGeometry>
        </mxCell>
        <mxCell id="5c4M8HBMnXqBhfR9mkvd-31" value="/send_cmd" style="edgeLabel;html=1;align=center;verticalAlign=middle;resizable=0;points=[];fontFamily=CMU Typewriter Text;" parent="5c4M8HBMnXqBhfR9mkvd-30" vertex="1" connectable="0">
          <mxGeometry x="0.1478" y="1" relative="1" as="geometry">
            <mxPoint x="13" y="-14" as="offset" />
          </mxGeometry>
        </mxCell>
        <mxCell id="5c4M8HBMnXqBhfR9mkvd-38" value="DIR" style="edgeLabel;html=1;align=center;verticalAlign=middle;resizable=0;points=[];rotation=-90;fontFamily=CMU Typewriter Text;" parent="1" vertex="1" connectable="0">
          <mxGeometry x="120.49725113913428" y="600.0047905407528" as="geometry" />
        </mxCell>
        <mxCell id="5c4M8HBMnXqBhfR9mkvd-39" value="EN" style="edgeLabel;html=1;align=center;verticalAlign=middle;resizable=0;points=[];rotation=-90;fontFamily=CMU Typewriter Text;" parent="1" vertex="1" connectable="0">
          <mxGeometry x="139.49725113913428" y="600.0047905407528" as="geometry" />
        </mxCell>
        <mxCell id="5c4M8HBMnXqBhfR9mkvd-46" style="rounded=0;orthogonalLoop=1;jettySize=auto;html=1;exitX=0.629;exitY=0.017;exitDx=0;exitDy=0;entryX=0.008;entryY=0.592;entryDx=0;entryDy=0;entryPerimeter=0;strokeWidth=3;exitPerimeter=0;fillColor=#0050ef;strokeColor=#001DBC;fontFamily=CMU Typewriter Text;" parent="1" source="5c4M8HBMnXqBhfR9mkvd-6" target="5c4M8HBMnXqBhfR9mkvd-21" edge="1">
          <mxGeometry relative="1" as="geometry">
            <mxPoint x="125" y="270" as="sourcePoint" />
            <mxPoint x="125" y="436" as="targetPoint" />
          </mxGeometry>
        </mxCell>
        <mxCell id="5c4M8HBMnXqBhfR9mkvd-47" value="/plate/info" style="edgeLabel;html=1;align=center;verticalAlign=middle;resizable=0;points=[];rotation=-35;fontFamily=CMU Typewriter Text;" parent="5c4M8HBMnXqBhfR9mkvd-46" vertex="1" connectable="0">
          <mxGeometry x="-0.0878" relative="1" as="geometry">
            <mxPoint x="-8" y="-7" as="offset" />
          </mxGeometry>
        </mxCell>
        <mxCell id="5c4M8HBMnXqBhfR9mkvd-48" style="rounded=0;orthogonalLoop=1;jettySize=auto;html=1;exitX=0.017;exitY=0.641;exitDx=0;exitDy=0;entryX=0.713;entryY=0.052;entryDx=0;entryDy=0;strokeWidth=3;exitPerimeter=0;entryPerimeter=0;fillColor=#60a917;strokeColor=#2D7600;fontFamily=CMU Typewriter Text;" parent="1" source="5c4M8HBMnXqBhfR9mkvd-21" target="5c4M8HBMnXqBhfR9mkvd-6" edge="1">
          <mxGeometry relative="1" as="geometry">
            <mxPoint x="157" y="437" as="sourcePoint" />
            <mxPoint x="351" y="282" as="targetPoint" />
          </mxGeometry>
        </mxCell>
        <mxCell id="5c4M8HBMnXqBhfR9mkvd-49" value="/start_motor" style="edgeLabel;html=1;align=center;verticalAlign=middle;resizable=0;points=[];rotation=-35;fontFamily=CMU Typewriter Text;" parent="5c4M8HBMnXqBhfR9mkvd-48" vertex="1" connectable="0">
          <mxGeometry x="-0.0878" relative="1" as="geometry">
            <mxPoint x="-23" y="4" as="offset" />
          </mxGeometry>
        </mxCell>
        <mxCell id="5c4M8HBMnXqBhfR9mkvd-50" style="rounded=0;orthogonalLoop=1;jettySize=auto;html=1;exitX=0.036;exitY=0.685;exitDx=0;exitDy=0;entryX=0.803;entryY=0.106;entryDx=0;entryDy=0;strokeWidth=3;exitPerimeter=0;entryPerimeter=0;fillColor=#60a917;strokeColor=#2D7600;fontFamily=CMU Typewriter Text;" parent="1" source="5c4M8HBMnXqBhfR9mkvd-21" target="5c4M8HBMnXqBhfR9mkvd-6" edge="1">
          <mxGeometry relative="1" as="geometry">
            <mxPoint x="345.5" y="283.2399999999999" as="sourcePoint" />
            <mxPoint x="204.03999999999996" y="379.2099999999999" as="targetPoint" />
          </mxGeometry>
        </mxCell>
        <mxCell id="5c4M8HBMnXqBhfR9mkvd-51" value="/stop_motor" style="edgeLabel;html=1;align=center;verticalAlign=middle;resizable=0;points=[];rotation=-35;fontFamily=CMU Typewriter Text;" parent="5c4M8HBMnXqBhfR9mkvd-50" vertex="1" connectable="0">
          <mxGeometry x="-0.0878" relative="1" as="geometry">
            <mxPoint x="-23" y="4" as="offset" />
          </mxGeometry>
        </mxCell>
        <mxCell id="5c4M8HBMnXqBhfR9mkvd-52" style="rounded=0;orthogonalLoop=1;jettySize=auto;html=1;exitX=0.054;exitY=0.731;exitDx=0;exitDy=0;entryX=0.881;entryY=0.166;entryDx=0;entryDy=0;strokeWidth=3;exitPerimeter=0;entryPerimeter=0;fillColor=#60a917;strokeColor=#2D7600;fontFamily=CMU Typewriter Text;" parent="1" source="5c4M8HBMnXqBhfR9mkvd-21" target="5c4M8HBMnXqBhfR9mkvd-6" edge="1">
          <mxGeometry relative="1" as="geometry">
            <mxPoint x="387.5" y="338" as="sourcePoint" />
            <mxPoint x="212.5" y="485" as="targetPoint" />
          </mxGeometry>
        </mxCell>
        <mxCell id="5c4M8HBMnXqBhfR9mkvd-53" value="/set_speed" style="edgeLabel;html=1;align=center;verticalAlign=middle;resizable=0;points=[];rotation=-35;fontFamily=CMU Typewriter Text;" parent="5c4M8HBMnXqBhfR9mkvd-52" vertex="1" connectable="0">
          <mxGeometry x="-0.0878" relative="1" as="geometry">
            <mxPoint x="-23" y="4" as="offset" />
          </mxGeometry>
        </mxCell>
        <mxCell id="5c4M8HBMnXqBhfR9mkvd-54" style="rounded=0;orthogonalLoop=1;jettySize=auto;html=1;exitX=0.075;exitY=0.77;exitDx=0;exitDy=0;entryX=0.927;entryY=0.233;entryDx=0;entryDy=0;strokeWidth=3;exitPerimeter=0;entryPerimeter=0;fillColor=#60a917;strokeColor=#2D7600;fontFamily=CMU Typewriter Text;" parent="1" source="5c4M8HBMnXqBhfR9mkvd-21" target="5c4M8HBMnXqBhfR9mkvd-6" edge="1">
          <mxGeometry relative="1" as="geometry">
            <mxPoint x="415" y="381.5" as="sourcePoint" />
            <mxPoint x="240" y="528.5" as="targetPoint" />
          </mxGeometry>
        </mxCell>
        <mxCell id="5c4M8HBMnXqBhfR9mkvd-55" value="/set_angle" style="edgeLabel;html=1;align=center;verticalAlign=middle;resizable=0;points=[];rotation=-36;fontFamily=CMU Typewriter Text;" parent="5c4M8HBMnXqBhfR9mkvd-54" vertex="1" connectable="0">
          <mxGeometry x="-0.0878" relative="1" as="geometry">
            <mxPoint x="-23" y="4" as="offset" />
          </mxGeometry>
        </mxCell>
        <mxCell id="5c4M8HBMnXqBhfR9mkvd-56" value="rosbag Logging" style="rounded=1;whiteSpace=wrap;html=1;fontFamily=CMU Typewriter Text;strokeWidth=2;fillColor=#1ba1e2;fontColor=#ffffff;strokeColor=#006EAF;" parent="1" vertex="1">
          <mxGeometry x="435" y="90" width="90" height="60" as="geometry" />
        </mxCell>
        <mxCell id="5c4M8HBMnXqBhfR9mkvd-57" value="CalibrationModel" style="rounded=1;whiteSpace=wrap;html=1;fontFamily=CMU Typewriter Text;strokeWidth=2;fillColor=#1ba1e2;fontColor=#ffffff;strokeColor=#006EAF;" parent="1" vertex="1">
          <mxGeometry x="630" y="90" width="90" height="60" as="geometry" />
        </mxCell>
        <mxCell id="5c4M8HBMnXqBhfR9mkvd-58" value="Calibration Database" style="rounded=1;whiteSpace=wrap;html=1;fontFamily=CMU Typewriter Text;strokeWidth=2;fillColor=#1ba1e2;fontColor=#ffffff;strokeColor=#006EAF;" parent="1" vertex="1">
          <mxGeometry x="435" y="250" width="90" height="60" as="geometry" />
        </mxCell>
        <mxCell id="5c4M8HBMnXqBhfR9mkvd-59" value="UUID Tracking" style="rounded=1;whiteSpace=wrap;html=1;fontFamily=CMU Typewriter Text;strokeWidth=2;fillColor=#1ba1e2;fontColor=#ffffff;strokeColor=#006EAF;" parent="1" vertex="1">
          <mxGeometry x="630" y="250" width="90" height="60" as="geometry" />
        </mxCell>
        <mxCell id="5c4M8HBMnXqBhfR9mkvd-65" style="rounded=0;orthogonalLoop=1;jettySize=auto;html=1;exitX=0.084;exitY=0.211;exitDx=0;exitDy=0;entryX=1;entryY=0.437;entryDx=0;entryDy=0;strokeWidth=3;exitPerimeter=0;entryPerimeter=0;fillColor=#0050ef;strokeColor=#001DBC;fontFamily=CMU Typewriter Text;" parent="1" source="5c4M8HBMnXqBhfR9mkvd-16" target="5c4M8HBMnXqBhfR9mkvd-6" edge="1">
          <mxGeometry relative="1" as="geometry">
            <mxPoint x="378" y="323" as="sourcePoint" />
            <mxPoint x="242" y="419" as="targetPoint" />
          </mxGeometry>
        </mxCell>
        <mxCell id="5c4M8HBMnXqBhfR9mkvd-66" value="/magnet_detect" style="edgeLabel;html=1;align=center;verticalAlign=middle;resizable=0;points=[];rotation=13;fontFamily=CMU Typewriter Text;" parent="5c4M8HBMnXqBhfR9mkvd-65" vertex="1" connectable="0">
          <mxGeometry x="-0.0878" relative="1" as="geometry">
            <mxPoint x="-15" y="-14" as="offset" />
          </mxGeometry>
        </mxCell>
        <mxCell id="5c4M8HBMnXqBhfR9mkvd-67" style="rounded=0;orthogonalLoop=1;jettySize=auto;html=1;exitX=0.75;exitY=0.944;exitDx=0;exitDy=0;entryX=0.02;entryY=0.328;entryDx=0;entryDy=0;strokeWidth=3;exitPerimeter=0;entryPerimeter=0;fillColor=#60a917;strokeColor=#2D7600;fontFamily=CMU Typewriter Text;" parent="1" source="5c4M8HBMnXqBhfR9mkvd-6" target="5c4M8HBMnXqBhfR9mkvd-12" edge="1">
          <mxGeometry relative="1" as="geometry">
            <mxPoint x="190" y="555" as="sourcePoint" />
            <mxPoint x="414.5999999999999" y="727.19" as="targetPoint" />
          </mxGeometry>
        </mxCell>
        <mxCell id="5c4M8HBMnXqBhfR9mkvd-68" value="/zero" style="edgeLabel;html=1;align=center;verticalAlign=middle;resizable=0;points=[];rotation=35;fontFamily=CMU Typewriter Text;" parent="5c4M8HBMnXqBhfR9mkvd-67" vertex="1" connectable="0">
          <mxGeometry x="-0.0878" relative="1" as="geometry">
            <mxPoint x="-4" y="-14" as="offset" />
          </mxGeometry>
        </mxCell>
        <mxCell id="5c4M8HBMnXqBhfR9mkvd-69" style="rounded=0;orthogonalLoop=1;jettySize=auto;html=1;exitX=0.098;exitY=0.802;exitDx=0;exitDy=0;entryX=0.968;entryY=0.31;entryDx=0;entryDy=0;strokeWidth=3;exitPerimeter=0;entryPerimeter=0;fillColor=#60a917;strokeColor=#2D7600;fontFamily=CMU Typewriter Text;" parent="1" source="5c4M8HBMnXqBhfR9mkvd-21" target="5c4M8HBMnXqBhfR9mkvd-6" edge="1">
          <mxGeometry relative="1" as="geometry">
            <mxPoint x="380.64" y="325" as="sourcePoint" />
            <mxPoint x="245" y="424.54999999999995" as="targetPoint" />
          </mxGeometry>
        </mxCell>
        <mxCell id="5c4M8HBMnXqBhfR9mkvd-70" value="/home" style="edgeLabel;html=1;align=center;verticalAlign=middle;resizable=0;points=[];rotation=-35;fontFamily=CMU Typewriter Text;" parent="5c4M8HBMnXqBhfR9mkvd-69" vertex="1" connectable="0">
          <mxGeometry x="-0.0878" relative="1" as="geometry">
            <mxPoint x="-22" y="5" as="offset" />
          </mxGeometry>
        </mxCell>
        <mxCell id="5c4M8HBMnXqBhfR9mkvd-71" style="rounded=0;orthogonalLoop=1;jettySize=auto;html=1;exitX=0.826;exitY=0.902;exitDx=0;exitDy=0;entryX=0.075;entryY=0.233;entryDx=0;entryDy=0;strokeWidth=3;exitPerimeter=0;entryPerimeter=0;fillColor=#60a917;strokeColor=#2D7600;fontFamily=CMU Typewriter Text;" parent="1" source="5c4M8HBMnXqBhfR9mkvd-6" target="5c4M8HBMnXqBhfR9mkvd-12" edge="1">
          <mxGeometry relative="1" as="geometry">
            <mxPoint x="200.0000000000001" y="540" as="sourcePoint" />
            <mxPoint x="431.15999999999997" y="715.2049999999999" as="targetPoint" />
          </mxGeometry>
        </mxCell>
        <mxCell id="5c4M8HBMnXqBhfR9mkvd-72" value="/reset" style="edgeLabel;html=1;align=center;verticalAlign=middle;resizable=0;points=[];rotation=35;fontFamily=CMU Typewriter Text;" parent="5c4M8HBMnXqBhfR9mkvd-71" vertex="1" connectable="0">
          <mxGeometry x="-0.0878" relative="1" as="geometry">
            <mxPoint x="-4" y="-15" as="offset" />
          </mxGeometry>
        </mxCell>
        <mxCell id="5c4M8HBMnXqBhfR9mkvd-73" style="rounded=0;orthogonalLoop=1;jettySize=auto;html=1;exitX=0.179;exitY=0.131;exitDx=0;exitDy=0;entryX=0.89;entryY=0.815;entryDx=0;entryDy=0;strokeWidth=3;entryPerimeter=0;exitPerimeter=0;fillColor=#0050ef;strokeColor=#001DBC;fontFamily=CMU Typewriter Text;" parent="1" source="5c4M8HBMnXqBhfR9mkvd-12" target="5c4M8HBMnXqBhfR9mkvd-6" edge="1">
          <mxGeometry relative="1" as="geometry">
            <mxPoint x="218" y="559" as="sourcePoint" />
            <mxPoint x="438" y="729" as="targetPoint" />
          </mxGeometry>
        </mxCell>
        <mxCell id="5c4M8HBMnXqBhfR9mkvd-74" value="/position" style="edgeLabel;html=1;align=center;verticalAlign=middle;resizable=0;points=[];rotation=39;fontFamily=CMU Typewriter Text;" parent="5c4M8HBMnXqBhfR9mkvd-73" vertex="1" connectable="0">
          <mxGeometry x="-0.0878" relative="1" as="geometry">
            <mxPoint x="-4" y="-15" as="offset" />
          </mxGeometry>
        </mxCell>
        <mxCell id="5c4M8HBMnXqBhfR9mkvd-75" style="rounded=0;orthogonalLoop=1;jettySize=auto;html=1;exitX=0.299;exitY=0.047;exitDx=0;exitDy=0;entryX=0.931;entryY=0.752;entryDx=0;entryDy=0;strokeWidth=3;entryPerimeter=0;exitPerimeter=0;fillColor=#0050ef;strokeColor=#001DBC;fontFamily=CMU Typewriter Text;" parent="1" source="5c4M8HBMnXqBhfR9mkvd-12" target="5c4M8HBMnXqBhfR9mkvd-6" edge="1">
          <mxGeometry relative="1" as="geometry">
            <mxPoint x="462" y="690" as="sourcePoint" />
            <mxPoint x="240" y="520" as="targetPoint" />
          </mxGeometry>
        </mxCell>
        <mxCell id="5c4M8HBMnXqBhfR9mkvd-76" value="/angle" style="edgeLabel;html=1;align=center;verticalAlign=middle;resizable=0;points=[];rotation=35;fontFamily=CMU Typewriter Text;" parent="5c4M8HBMnXqBhfR9mkvd-75" vertex="1" connectable="0">
          <mxGeometry x="-0.0878" relative="1" as="geometry">
            <mxPoint x="-4" y="-15" as="offset" />
          </mxGeometry>
        </mxCell>
        <mxCell id="5c4M8HBMnXqBhfR9mkvd-77" style="rounded=0;orthogonalLoop=1;jettySize=auto;html=1;exitX=0.429;exitY=0.005;exitDx=0;exitDy=0;entryX=0.973;entryY=0.676;entryDx=0;entryDy=0;strokeWidth=3;entryPerimeter=0;exitPerimeter=0;fillColor=#0050ef;strokeColor=#001DBC;fontFamily=CMU Typewriter Text;" parent="1" source="5c4M8HBMnXqBhfR9mkvd-12" target="5c4M8HBMnXqBhfR9mkvd-6" edge="1">
          <mxGeometry relative="1" as="geometry">
            <mxPoint x="465" y="670" as="sourcePoint" />
            <mxPoint x="243" y="500" as="targetPoint" />
          </mxGeometry>
        </mxCell>
        <mxCell id="5c4M8HBMnXqBhfR9mkvd-78" value="/angular_velocity" style="edgeLabel;html=1;align=center;verticalAlign=middle;resizable=0;points=[];rotation=35;fontFamily=CMU Typewriter Text;" parent="5c4M8HBMnXqBhfR9mkvd-77" vertex="1" connectable="0">
          <mxGeometry x="-0.0878" relative="1" as="geometry">
            <mxPoint x="-4" y="-15" as="offset" />
          </mxGeometry>
        </mxCell>
        <mxCell id="5c4M8HBMnXqBhfR9mkvd-79" style="rounded=0;orthogonalLoop=1;jettySize=auto;html=1;exitX=0.008;exitY=0.355;exitDx=0;exitDy=0;entryX=1;entryY=0.528;entryDx=0;entryDy=0;strokeWidth=3;exitPerimeter=0;entryPerimeter=0;fillColor=#0050ef;strokeColor=#001DBC;fontFamily=CMU Typewriter Text;" parent="1" source="5c4M8HBMnXqBhfR9mkvd-16" target="5c4M8HBMnXqBhfR9mkvd-6" edge="1">
          <mxGeometry relative="1" as="geometry">
            <mxPoint x="694" y="551" as="sourcePoint" />
            <mxPoint x="260" y="462" as="targetPoint" />
          </mxGeometry>
        </mxCell>
        <mxCell id="5c4M8HBMnXqBhfR9mkvd-80" value="/magnetic" style="edgeLabel;html=1;align=center;verticalAlign=middle;resizable=0;points=[];rotation=13;fontFamily=CMU Typewriter Text;" parent="5c4M8HBMnXqBhfR9mkvd-79" vertex="1" connectable="0">
          <mxGeometry x="-0.0878" relative="1" as="geometry">
            <mxPoint x="-15" y="-14" as="offset" />
          </mxGeometry>
        </mxCell>
        <mxCell id="5c4M8HBMnXqBhfR9mkvd-81" style="rounded=0;orthogonalLoop=1;jettySize=auto;html=1;exitX=0.439;exitY=-0.001;exitDx=0;exitDy=0;entryX=0.653;entryY=0.981;entryDx=0;entryDy=0;strokeWidth=3;exitPerimeter=0;entryPerimeter=0;fillColor=#0050ef;strokeColor=#001DBC;fontFamily=CMU Typewriter Text;" parent="1" source="5c4M8HBMnXqBhfR9mkvd-16" target="5c4M8HBMnXqBhfR9mkvd-21" edge="1">
          <mxGeometry relative="1" as="geometry">
            <mxPoint x="681" y="571" as="sourcePoint" />
            <mxPoint x="260" y="481" as="targetPoint" />
          </mxGeometry>
        </mxCell>
        <mxCell id="5c4M8HBMnXqBhfR9mkvd-82" value="/magnetic" style="edgeLabel;html=1;align=center;verticalAlign=middle;resizable=0;points=[];rotation=79;fontFamily=CMU Typewriter Text;" parent="5c4M8HBMnXqBhfR9mkvd-81" vertex="1" connectable="0">
          <mxGeometry x="-0.0878" relative="1" as="geometry">
            <mxPoint x="9" y="-7" as="offset" />
          </mxGeometry>
        </mxCell>
        <mxCell id="5c4M8HBMnXqBhfR9mkvd-83" style="rounded=0;orthogonalLoop=1;jettySize=auto;html=1;exitX=0.3;exitY=0.041;exitDx=0;exitDy=0;entryX=0.605;entryY=0.99;entryDx=0;entryDy=0;strokeWidth=3;entryPerimeter=0;fillColor=#0050ef;strokeColor=#001DBC;exitPerimeter=0;fontFamily=CMU Typewriter Text;" parent="1" source="5c4M8HBMnXqBhfR9mkvd-16" target="5c4M8HBMnXqBhfR9mkvd-21" edge="1">
          <mxGeometry relative="1" as="geometry">
            <mxPoint x="694" y="551" as="sourcePoint" />
            <mxPoint x="260" y="462" as="targetPoint" />
          </mxGeometry>
        </mxCell>
        <mxCell id="5c4M8HBMnXqBhfR9mkvd-84" value="/magnet_detect" style="edgeLabel;html=1;align=center;verticalAlign=middle;resizable=0;points=[];rotation=80;fontFamily=CMU Typewriter Text;" parent="5c4M8HBMnXqBhfR9mkvd-83" vertex="1" connectable="0">
          <mxGeometry x="-0.0878" relative="1" as="geometry">
            <mxPoint x="10" y="-1" as="offset" />
          </mxGeometry>
        </mxCell>
        <mxCell id="5c4M8HBMnXqBhfR9mkvd-85" value="" style="rounded=0;whiteSpace=wrap;html=1;strokeWidth=2;fontFamily=CMU Typewriter Text;" parent="1" vertex="1">
          <mxGeometry x="790" y="550" width="300" height="290" as="geometry" />
        </mxCell>
        <mxCell id="5c4M8HBMnXqBhfR9mkvd-86" value="&lt;font style=&quot;font-size: 30px;&quot;&gt;Legend&lt;/font&gt;" style="rounded=0;whiteSpace=wrap;html=1;strokeWidth=2;fontFamily=CMU Typewriter Text;" parent="1" vertex="1">
          <mxGeometry x="790" y="550" width="300" height="60" as="geometry" />
        </mxCell>
        <mxCell id="5c4M8HBMnXqBhfR9mkvd-87" style="rounded=0;orthogonalLoop=1;jettySize=auto;html=1;exitX=0.056;exitY=0.167;exitDx=0;exitDy=0;entryX=0.167;entryY=0.167;entryDx=0;entryDy=0;strokeWidth=3;exitPerimeter=0;entryPerimeter=0;fillColor=#0050ef;strokeColor=#001DBC;fontFamily=CMU Typewriter Text;" parent="1" edge="1">
          <mxGeometry relative="1" as="geometry">
            <mxPoint x="800" y="635" as="sourcePoint" />
            <mxPoint x="839.9999999999999" y="635" as="targetPoint" />
          </mxGeometry>
        </mxCell>
        <mxCell id="5c4M8HBMnXqBhfR9mkvd-89" value="&lt;font style=&quot;font-size: 14px;&quot;&gt;Publisher (tail) to Subscriber (head) data pipe&lt;/font&gt;" style="text;html=1;strokeColor=none;fillColor=none;align=left;verticalAlign=middle;whiteSpace=wrap;rounded=0;fontFamily=CMU Typewriter Text;" parent="1" vertex="1">
          <mxGeometry x="850" y="620" width="240" height="30" as="geometry" />
        </mxCell>
        <mxCell id="5c4M8HBMnXqBhfR9mkvd-90" style="rounded=0;orthogonalLoop=1;jettySize=auto;html=1;exitX=0.056;exitY=0.167;exitDx=0;exitDy=0;entryX=0.167;entryY=0.167;entryDx=0;entryDy=0;strokeWidth=3;exitPerimeter=0;entryPerimeter=0;fillColor=#60a917;strokeColor=#2D7600;fontFamily=CMU Typewriter Text;" parent="1" edge="1">
          <mxGeometry relative="1" as="geometry">
            <mxPoint x="800" y="670" as="sourcePoint" />
            <mxPoint x="840" y="670" as="targetPoint" />
          </mxGeometry>
        </mxCell>
        <mxCell id="5c4M8HBMnXqBhfR9mkvd-91" value="&lt;font style=&quot;font-size: 14px;&quot;&gt;Client (tail) to Service (head) data pipe&lt;/font&gt;" style="text;html=1;strokeColor=none;fillColor=none;align=left;verticalAlign=middle;whiteSpace=wrap;rounded=0;fontFamily=CMU Typewriter Text;" parent="1" vertex="1">
          <mxGeometry x="850" y="655" width="230" height="30" as="geometry" />
        </mxCell>
        <mxCell id="5c4M8HBMnXqBhfR9mkvd-94" style="rounded=0;orthogonalLoop=1;jettySize=auto;html=1;exitX=0.056;exitY=0.167;exitDx=0;exitDy=0;entryX=0.167;entryY=0.167;entryDx=0;entryDy=0;strokeWidth=3;exitPerimeter=0;entryPerimeter=0;fillColor=#60a917;strokeColor=#FF3333;endArrow=none;endFill=0;fontFamily=CMU Typewriter Text;" parent="1" edge="1">
          <mxGeometry relative="1" as="geometry">
            <mxPoint x="800" y="700" as="sourcePoint" />
            <mxPoint x="840" y="700" as="targetPoint" />
          </mxGeometry>
        </mxCell>
        <mxCell id="5c4M8HBMnXqBhfR9mkvd-95" value="&lt;span style=&quot;font-size: 14px;&quot;&gt;Software/Hardware Interface&lt;/span&gt;" style="text;html=1;strokeColor=none;fillColor=none;align=left;verticalAlign=middle;whiteSpace=wrap;rounded=0;fontFamily=CMU Typewriter Text;" parent="1" vertex="1">
          <mxGeometry x="850" y="685" width="230" height="30" as="geometry" />
        </mxCell>
        <mxCell id="5c4M8HBMnXqBhfR9mkvd-96" style="rounded=0;orthogonalLoop=1;jettySize=auto;html=1;exitX=0.056;exitY=0.167;exitDx=0;exitDy=0;entryX=0.167;entryY=0.167;entryDx=0;entryDy=0;strokeWidth=3;exitPerimeter=0;entryPerimeter=0;fillColor=#60a917;strokeColor=#000000;endArrow=none;endFill=0;fontFamily=CMU Typewriter Text;" parent="1" edge="1">
          <mxGeometry relative="1" as="geometry">
            <mxPoint x="800" y="730" as="sourcePoint" />
            <mxPoint x="840" y="730" as="targetPoint" />
          </mxGeometry>
        </mxCell>
        <mxCell id="5c4M8HBMnXqBhfR9mkvd-97" value="&lt;font style=&quot;font-size: 14px;&quot;&gt;Physical connection&lt;/font&gt;" style="text;html=1;strokeColor=none;fillColor=none;align=left;verticalAlign=middle;whiteSpace=wrap;rounded=0;fontFamily=CMU Typewriter Text;" parent="1" vertex="1">
          <mxGeometry x="850" y="715" width="230" height="30" as="geometry" />
        </mxCell>
        <mxCell id="5c4M8HBMnXqBhfR9mkvd-98" value="" style="ellipse;whiteSpace=wrap;html=1;fontFamily=CMU Typewriter Text;strokeWidth=2;fillColor=#e1d5e7;strokeColor=#9673a6;" parent="1" vertex="1">
          <mxGeometry x="800" y="750" width="40" height="20" as="geometry" />
        </mxCell>
        <mxCell id="5c4M8HBMnXqBhfR9mkvd-99" value="&lt;font style=&quot;font-size: 14px;&quot;&gt;ROS2 node&lt;/font&gt;" style="text;html=1;strokeColor=none;fillColor=none;align=left;verticalAlign=middle;whiteSpace=wrap;rounded=0;fontFamily=CMU Typewriter Text;" parent="1" vertex="1">
          <mxGeometry x="850" y="745" width="230" height="30" as="geometry" />
        </mxCell>
        <mxCell id="5c4M8HBMnXqBhfR9mkvd-100" value="" style="rounded=1;whiteSpace=wrap;html=1;fontFamily=CMU Typewriter Text;strokeWidth=2;fillColor=#1ba1e2;fontColor=#ffffff;strokeColor=#006EAF;" parent="1" vertex="1">
          <mxGeometry x="800" y="780" width="40" height="20" as="geometry" />
        </mxCell>
        <mxCell id="5c4M8HBMnXqBhfR9mkvd-101" value="&lt;font style=&quot;font-size: 14px;&quot;&gt;Supporting library or class&lt;/font&gt;" style="text;html=1;strokeColor=none;fillColor=none;align=left;verticalAlign=middle;whiteSpace=wrap;rounded=0;fontFamily=CMU Typewriter Text;" parent="1" vertex="1">
          <mxGeometry x="850" y="775" width="230" height="30" as="geometry" />
        </mxCell>
        <mxCell id="5c4M8HBMnXqBhfR9mkvd-103" value="" style="rounded=0;whiteSpace=wrap;html=1;fontFamily=CMU Typewriter Text;strokeWidth=2;" parent="1" vertex="1">
          <mxGeometry x="800" y="810" width="40" height="20" as="geometry" />
        </mxCell>
        <mxCell id="5c4M8HBMnXqBhfR9mkvd-104" value="&lt;font style=&quot;font-size: 14px;&quot;&gt;Physical device&lt;/font&gt;" style="text;html=1;strokeColor=none;fillColor=none;align=left;verticalAlign=middle;whiteSpace=wrap;rounded=0;fontFamily=CMU Typewriter Text;" parent="1" vertex="1">
          <mxGeometry x="850" y="805" width="230" height="30" as="geometry" />
        </mxCell>
      </root>
    </mxGraphModel>
  </diagram>
</mxfile>
